<svg width="295" height="196" viewBox="0 0 295 196" fill="none" xmlns="http://www.w3.org/2000/svg">
<path d="M141.417 0.699383C136.218 2.40327 132.548 5.6363 130.363 10.4858C128.31 14.9422 128.31 16.1218 129.708 42.5102C130.407 55.9229 130.844 67.0637 130.669 67.2385C130.494 67.4133 103.8 67.6317 71.3825 67.6754L12.4017 67.8065L9.8677 69.0298C6.50361 70.69 3.40166 73.8793 1.61039 77.5055L0.168635 80.4764L0.0375662 131.025C-0.0498128 180.22 -0.0498128 181.661 0.780288 184.021C3.18321 190.792 9.43081 195.38 16.9891 195.904C20.8338 196.166 19.2609 196.385 64.1738 189.438C68.8485 188.739 96.1982 184.501 124.902 180.088C153.606 175.632 185.368 170.739 195.461 169.21C205.553 167.637 218.354 165.671 223.859 164.797C229.407 163.967 242.296 162.001 252.607 160.428C262.874 158.855 273.446 157.283 276.112 156.933C282.534 156.059 283.888 155.666 286.684 153.744C289.699 151.69 292.408 148.457 293.675 145.355L294.636 142.952V111.933C294.636 83.2289 294.592 80.7386 293.849 78.6851C292.233 74.0104 288.519 70.122 284.107 68.4618C281.747 67.588 281.005 67.588 222.111 67.588C165.621 67.588 162.475 67.5443 162.475 66.8016C162.475 66.4084 162.956 56.6219 163.567 45.0879C164.922 18.6995 164.965 15.7286 163.742 12.1897C162.082 7.25281 157.975 2.92755 153.3 1.13628C149.849 -0.174407 144.606 -0.392855 141.417 0.699383ZM150.067 12.146C151.859 13.2383 153.606 16.0344 153.956 18.4373C154.13 19.3985 153.912 25.2966 153.562 31.5442C150.985 74.7968 150.985 74.8405 151.728 76.4133C153.126 79.3842 147.97 79.122 217.087 79.3842C278.908 79.6026 279.781 79.6026 280.961 80.4764C282.971 81.9619 283.102 82.792 282.971 94.3697L282.84 105.161L281.311 103.108C279.039 100.049 277.379 99.2629 273.446 99.2629C269.252 99.2629 266.762 100.355 263.66 103.588L261.344 105.947L261.519 104.112C261.825 101.71 261.388 101.578 256.189 102.409C251.733 103.108 250.859 103.501 250.291 104.986C249.679 106.515 249.723 136.443 250.291 137.535C250.597 138.015 251.209 138.365 251.951 138.365C254.136 138.365 260.514 137.054 261.082 136.53C261.476 136.093 261.65 133.035 261.781 125.04C261.869 116.826 262.087 113.899 262.524 113.2C263.442 111.714 265.582 110.71 267.679 110.71C269.296 110.71 269.864 110.928 270.694 111.889C271.699 113.069 271.699 113.2 271.699 123.467C271.699 136.137 271.48 135.656 276.811 134.87C280.437 134.346 282.184 133.515 282.184 132.423C282.184 132.074 282.403 131.899 282.621 132.03C282.883 132.161 283.058 134.171 283.058 136.53C283.058 140.025 282.883 141.03 282.184 142.21C281.18 143.87 279.039 144.918 276.636 144.918C275.718 144.918 271.83 145.399 267.985 146.011C264.141 146.622 253.917 148.195 245.267 149.55C236.616 150.86 221.194 153.219 210.97 154.792C200.747 156.365 190.043 158.025 187.16 158.462C181.917 159.249 159.286 162.787 146.965 164.753C143.383 165.321 140.368 165.758 140.325 165.715C140.106 165.496 139.669 150.598 139.888 150.598C140.019 150.598 140.674 151.079 141.286 151.647C144.475 154.618 151.859 153.875 156.883 150.074C160.072 147.671 163.567 142.734 164.441 139.37C167.237 128.71 161.339 118.486 151.815 117.525C147.577 117.088 141.81 119.753 139.975 122.986C139.32 124.122 139.32 124.122 139.582 122.113C139.8 120.409 139.713 119.972 139.101 119.753C138.315 119.447 133.159 120.19 130.713 120.933C127.873 121.807 127.96 120.977 127.96 145.399V167.55L126.781 167.812C126.082 167.943 118.392 169.166 109.611 170.477C100.829 171.787 89.4263 173.579 84.2709 174.409C70.3777 176.637 28.9163 182.928 22.2318 183.846C18.0376 184.414 15.7658 184.021 13.7124 182.404C11.2221 180.438 11.3095 181.88 11.3095 139.938C11.3095 105.379 11.3968 101.229 12.0085 100.617C12.6201 100.006 21.926 99.9182 107.732 99.9182H202.757L204.461 98.2144C206.077 96.5978 206.165 96.3794 206.165 93.8017C206.165 91.224 206.077 90.9619 204.592 89.6075L203.063 88.1221H107.426H11.8337L11.5279 86.3745C11.091 83.7531 11.6153 82.1366 13.4066 80.7822L14.9357 79.6026L77.1059 79.3842L139.232 79.1657L140.368 78.1172C140.98 77.5492 141.679 76.457 141.941 75.7143C142.378 74.4036 141.723 60.9909 139.713 27.7869C139.058 16.5587 139.713 13.7625 143.339 11.9713C145.393 10.9664 148.276 11.0538 150.067 12.146ZM150.242 128.841C152.601 130.064 153.737 132.074 153.737 135.088C153.694 143.171 144.257 147.147 140.849 140.506C139.757 138.452 139.538 134.389 140.368 132.773C141.548 130.501 145.218 128.011 147.621 127.923C148.014 127.88 149.194 128.316 150.242 128.841Z" fill="#3147F5"/>
<path d="M143.82 18.3937C141.373 20.4908 142.596 25.1655 145.786 25.7772C149.98 26.5636 152.82 20.8403 149.499 18.2189C147.926 16.9956 145.392 17.083 143.82 18.3937Z" fill="#3147F5"/>
<path d="M225.607 105.38C217.306 106.909 210.097 111.453 210.097 115.123C210.097 116.564 211.277 118.618 212.281 118.924C213.548 119.317 216.082 118.836 221.849 117.089C227.442 115.428 229.364 115.21 231.374 116.04C232.772 116.608 234.869 119.928 234.214 120.496C234.039 120.627 230.282 121.37 225.825 122.113C215.995 123.773 215.078 124.035 212.456 125.826C207.738 129.016 207.082 134.958 211.014 139.414C213.461 142.21 216.388 143.346 221.019 143.346C225.738 143.302 228.665 142.21 232.029 139.239C234.345 137.186 234.476 137.142 234.476 138.191C234.476 138.802 234.782 139.632 235.131 140.026C235.786 140.637 236.223 140.637 240.068 139.982C242.515 139.589 244.612 138.977 245.005 138.584C245.573 138.016 245.748 136.443 245.835 129.584C246.053 116.346 245.049 111.453 241.51 108.482C237.49 105.074 232.466 104.113 225.607 105.38ZM234.257 128.317C234.126 128.797 233.121 130.195 232.073 131.375C228.883 134.914 224.34 135.788 221.718 133.341C220.495 132.205 220.102 129.627 221.15 129.627C221.413 129.584 224.34 129.103 227.573 128.535C234.913 127.268 234.519 127.268 234.257 128.317Z" fill="#3147F5"/>
<path d="M62.5568 106.734C60.8093 107.608 59.4986 109.618 59.1491 111.933C58.9306 113.287 59.1054 114.161 59.8918 115.603C62.3384 120.278 68.3239 120.322 71.4695 115.69C73.1297 113.2 72.5617 109.618 70.1151 107.389C68.6297 105.991 64.6539 105.642 62.5568 106.734Z" fill="#3147F5"/>
<path d="M24.6345 108.874C22.4937 109.18 20.6588 109.486 20.6151 109.486C20.5714 109.53 20.2219 109.836 19.8724 110.229C19.2607 110.84 19.1733 114.161 19.1733 140.549C19.1733 166.938 19.2607 170.258 19.8724 170.87C20.7025 171.744 20.2219 171.744 26.9064 170.695C30.0083 170.214 37.3045 169.122 43.2026 168.292C49.1006 167.418 54.4308 166.501 55.0861 166.239C55.9599 165.933 56.4405 165.321 56.7463 164.142C57.3143 161.957 56.8337 156.452 55.9599 155.753C55.0861 155.01 52.9016 155.185 43.8579 156.671C39.5326 157.37 34.9452 158.069 33.7219 158.244L31.4064 158.549V134.258C31.4064 110.535 31.4064 109.967 30.5326 109.093C30.052 108.612 29.3967 108.263 29.1345 108.263C28.8287 108.306 26.819 108.569 24.6345 108.874Z" fill="#3147F5"/>
<path d="M186.505 111.539C181.131 112.457 177.374 114.423 173.835 118.093C166.583 125.607 165.753 136.355 171.869 143.52C172.874 144.656 174.621 145.923 176.719 146.928C179.689 148.413 180.388 148.588 184.452 148.763C188.122 148.937 189.563 148.806 192.403 148.02C201.054 145.617 205.554 140.505 201.753 137.316C200.005 135.83 198.476 135.874 194.719 137.534C190.437 139.413 187.029 139.981 184.408 139.282C182.398 138.758 179.952 136.923 179.952 135.962C179.952 135.699 182.704 135.088 186.418 134.52C189.956 133.952 195.287 133.122 198.301 132.641C201.622 132.117 204.025 131.549 204.418 131.112C204.898 130.631 205.073 129.627 205.029 127.311C204.855 120.19 200.617 114.16 194.457 112.369C192.097 111.67 188.122 111.277 186.505 111.539ZM191.704 121.981C193.102 122.68 194.325 125.039 193.626 125.738C193.19 126.175 179.558 128.491 179.209 128.185C178.859 127.835 180.345 124.995 181.393 124.034C184.189 121.5 188.952 120.539 191.704 121.981Z" fill="#3147F5"/>
<path d="M110.703 122.942C108.257 123.86 105.199 126.088 104.368 127.661L103.8 128.666L102.708 127.355C99.3878 123.423 93.2276 124.078 88.5965 128.797L86.1062 131.287L86.5431 129.758C87.1547 127.442 86.6742 127.224 82.6547 127.835C80.7761 128.141 78.5916 128.578 77.8489 128.84C75.0964 129.67 75.0964 129.539 75.0964 146.578C75.0964 156.365 75.2712 162.306 75.5333 162.874C76.1013 163.879 77.8489 163.923 82.2615 163.093C87.0237 162.175 86.8926 162.569 86.8926 149.637V138.714L88.247 137.447C89.9509 135.831 92.179 135.7 93.1839 137.141C93.7519 137.971 93.8829 139.85 93.8829 148.675C93.8829 161.957 93.6208 161.345 99.5189 160.428C105.635 159.51 105.242 160.34 105.242 147.583C105.242 135.787 105.286 135.525 107.907 134.214C109.393 133.428 111.184 133.734 111.796 134.869C112.058 135.35 112.233 140.243 112.233 146.316C112.233 154.617 112.364 157.151 112.844 157.806C113.368 158.549 113.674 158.593 117.432 158.025C120.053 157.675 121.844 157.151 122.543 156.627L123.592 155.797V143.651C123.592 131.112 123.242 128.01 121.582 125.476C119.703 122.636 114.81 121.5 110.703 122.942Z" fill="#3147F5"/>
<path d="M65.179 130.676C60.3731 131.637 60.6789 130.414 60.6789 148.632C60.6789 161.215 60.81 164.579 61.2906 165.234C61.7712 165.89 62.2518 165.977 64.4362 165.759C68.9363 165.234 71.2955 164.492 71.9071 163.268C72.6062 161.87 72.7372 132.205 72.0382 130.894C71.4703 129.933 69.4168 129.846 65.179 130.676Z" fill="#3147F5"/>
</svg>
